HIERARCHY
ROOT hip
{
	OFFSET 0.000000 0.000000 0.000000
	CHANNELS 6 Xposition Yposition Zposition Xrotation Zrotation Yrotation 
	JOINT abdomen
	{
		OFFSET 0.000000 3.422050 0.000000
		CHANNELS 3 Xrotation Zrotation Yrotation 
		JOINT chest
		{
			OFFSET 0.000000 8.486693 -0.684411
			CHANNELS 3 Xrotation Zrotation Yrotation 
			JOINT neck
			{
				OFFSET 0.000000 10.266162 -0.273764
				CHANNELS 3 Xrotation Zrotation Yrotation 
				JOINT head
				{
					OFFSET 0.000000 3.148285 0.000000
					CHANNELS 3 Xrotation Zrotation Yrotation 
					End Site
					{
						OFFSET 0.000000 3.148289 0.000000
					}
				}
			}
			JOINT lCollar
			{
				OFFSET 3.422053 6.707223 -0.821293
				CHANNELS 3 Yrotation Zrotation Xrotation 
				JOINT lShldr
				{
					OFFSET 3.285171 0.000000 0.000000
					CHANNELS 3 Zrotation Yrotation Xrotation 
					JOINT lForeArm
					{
						OFFSET 10.129278 0.000000 0.000000
						CHANNELS 3 Yrotation Zrotation Xrotation 
						JOINT lHand
						{
							OFFSET 8.486692 0.000000 0.000000
							CHANNELS 3 Zrotation Yrotation Xrotation 
							End Site
							{
								OFFSET 4.106464 0.000000 0.000000
							}
						}
					}
				}
			}
			JOINT rCollar
			{
				OFFSET -3.558935 6.707223 -0.821293
				CHANNELS 3 Yrotation Zrotation Xrotation 
				JOINT rShldr
				{
					OFFSET -3.148289 0.000000 0.000000
					CHANNELS 3 Zrotation Yrotation Xrotation 
					JOINT rForeArm
					{
						OFFSET -10.266159 0.000000 0.000000
						CHANNELS 3 Yrotation Zrotation Xrotation 
						JOINT rHand
						{
							OFFSET -8.349810 0.000000 0.000000
							CHANNELS 3 Zrotation Yrotation Xrotation 
							End Site
							{
								OFFSET -4.106464 0.000000 0.000000
							}
						}
					}
				}
			}
		}
	}
	JOINT lThigh
	{
		OFFSET 5.338403 -1.642589 1.368821
		CHANNELS 3 Xrotation Zrotation Yrotation 
		JOINT lShin
		{
			OFFSET -2.053232 -20.121670 0.000000
			CHANNELS 3 Xrotation Zrotation Yrotation 
			JOINT lFoot
			{
				OFFSET 0.000000 -19.300380 -1.231939
				CHANNELS 3 Xrotation Yrotation Zrotation 
				End Site
				{
					OFFSET 0.000000 -2.463878 4.653993
				}
			}
		}
	}
	JOINT rThigh
	{
		OFFSET -5.338403 -1.642589 1.368821
		CHANNELS 3 Xrotation Zrotation Yrotation 
		JOINT rShin
		{
			OFFSET 2.053232 -20.121670 0.000000
			CHANNELS 3 Xrotation Zrotation Yrotation 
			JOINT rFoot
			{
				OFFSET 0.000000 -19.300380 -1.231939
				CHANNELS 3 Xrotation Yrotation Zrotation 
				End Site
				{
					OFFSET 0.000000 -2.463878 4.653993
				}
			}
		}
	}
}
MOTION
Frames: 16
Frame Time: 0.022176
0.000000 43.528500 0.000000 0.000000 0.000000 0.000000 0.000000 0.000000 0.000000 0.000000 0.000000 0.000000 0.000000 0.000000 0.000000 0.000000 0.000000 0.000000 0.000000 0.000000 0.000000 0.000000 0.000000 0.000000 0.000000 0.000000 0.000000 0.000000 0.000000 0.000000 0.000000 0.000000 0.000000 0.000000 0.000000 0.000000 0.000000 0.000000 0.000000 0.000000 0.000000 0.000000 0.000000 0.000000 0.000000 0.000000 0.000000 0.000000 0.000000 0.000000 0.000000 0.000000 0.000000 0.000000 0.000000 0.000000 0.000000 0.000000 0.000000 0.000000 
-0.393502 12.773220 15.742580 35.000977 0.000000 -180.000000 38.836914 -2.214931 -0.812411 37.331383 0.150294 0.849939 15.996989 0.000000 0.000000 10.999558 0.000000 0.000000 -22.206442 12.002963 7.526531 -58.590260 -31.304171 7.579580 1.297960 -6.723930 0.953853 3.512464 -22.398647 -13.305862 22.986525 -10.334495 8.492544 57.481560 30.855879 7.026596 -1.508247 6.305356 0.960513 -4.144208 23.128181 -15.300640 -47.027145 37.598167 52.916088 42.026085 2.654321 -55.853676 26.269836 41.319187 8.317310 -47.042553 -37.619434 -52.922501 42.030682 -2.679545 55.857868 26.259243 -41.337803 -8.336647 
-0.393502 12.773220 15.561022 36.433788 0.000000 -180.000000 38.448151 -2.214901 -0.812365 36.998184 0.150194 0.849925 15.178510 0.000000 0.000000 10.422686 0.000000 0.000000 -22.029953 11.411735 8.103156 -58.590263 -31.304171 7.579581 1.297960 -6.723930 0.953853 2.262864 -21.580286 -12.371440 22.754610 -9.833651 9.012929 57.481560 30.855883 7.026597 -1.508247 6.305356 0.960513 -2.834302 22.294149 -14.237126 -45.678825 38.163345 53.236053 42.841988 2.914332 -55.788475 25.456238 40.937164 9.042418 -45.693035 -38.183727 -53.242634 42.846237 -2.938262 55.791962 25.446011 -40.954849 -9.061041 
-0.393502 12.773220 15.379463 37.871399 0.000000 -180.000000 38.059311 -2.214871 -0.812320 36.664944 0.150095 0.849912 14.357092 0.000000 0.000000 9.844819 0.000000 0.000000 -21.847603 10.821736 8.681002 -58.590263 -31.304174 7.579583 1.297960 -6.723930 0.953853 1.031307 -20.741053 -11.459057 22.518263 -9.334529 9.534994 57.481560 30.855879 7.026595 -1.508247 6.305356 0.960513 -1.545090 21.435482 -13.197528 -44.313061 38.723579 53.576233 43.659100 3.173625 -55.719482 24.653221 40.547207 9.756601 -44.326069 -38.743061 -53.582962 43.663029 -3.196248 55.722298 24.643391 -40.563976 -9.774482 
-0.393502 12.773220 15.197905 39.312210 0.000000 -180.000000 37.670410 -2.214840 -0.812275 36.331665 0.149996 0.849900 13.532793 0.000000 0.000000 9.265985 0.000000 0.000000 -21.659409 10.233097 9.260117 -58.590263 -31.304174 7.579580 1.297960 -6.723931 0.953853 -0.182060 -19.881784 -10.568927 22.277485 -8.837224 10.058760 57.481560 30.855883 7.026597 -1.508247 6.305356 0.960513 -0.276847 20.553125 -12.182169 -42.929657 39.278275 53.936920 44.477383 3.432108 -55.646717 23.860836 40.149521 10.459827 -42.941460 -39.296844 -53.943798 44.480980 -3.453414 55.648872 23.851427 -40.165398 -10.476949 
-0.393502 12.773220 15.016346 40.755764 0.000000 -180.000000 37.281456 -2.214809 -0.812230 35.998344 0.149896 0.849888 12.705689 0.000000 0.000000 8.686207 0.000000 0.000000 -21.465385 9.645953 9.840551 -58.590260 -31.304171 7.579580 1.297960 -6.723930 0.953853 -1.377151 -19.003336 -9.701209 22.032307 -8.341839 10.584247 57.481556 30.855875 7.026595 -1.508247 6.305356 0.960513 0.970226 19.648102 -11.191320 -41.528473 39.826866 54.318439 45.296783 3.689699 -55.570198 23.079090 39.744293 11.152071 -41.539074 -39.844517 -54.325451 45.300045 -3.709682 55.571712 23.070118 -39.759289 -11.168409 
-0.393502 12.773220 14.834787 42.201611 0.000000 -180.000000 36.892464 -2.214778 -0.812186 35.665005 0.149796 0.849876 11.875854 0.000000 0.000000 8.105515 0.000000 0.000000 -21.265570 9.060440 10.422360 -58.590260 -31.304171 7.579581 1.297960 -6.723929 0.953853 -2.553940 -18.106588 -8.856008 21.782728 -7.848465 11.111473 57.481556 30.855879 7.026594 -1.508247 6.305356 0.960513 2.196012 18.721428 -10.225161 -40.109386 40.368782 54.721073 46.117222 3.946315 -55.489906 22.308004 39.331757 11.833332 -40.118771 -40.385494 -54.728195 46.120152 -3.964962 55.490803 22.299475 -39.345863 -11.848859 
-0.393502 12.773220 14.653229 43.649296 0.000000 -180.000000 36.503422 -2.214746 -0.812141 35.331638 0.149697 0.849865 11.043357 0.000000 0.000000 7.523937 0.000000 0.000000 -21.059959 8.476689 11.005580 -58.590260 -31.304171 7.579580 1.297960 -6.723930 0.953853 -3.712453 -17.192438 -8.033372 21.528767 -7.357206 11.640457 57.481560 30.855879 7.026596 -1.508247 6.305356 0.960513 3.400469 17.774160 -9.283799 -38.672264 40.903404 55.145046 46.938652 4.201875 -55.405884 21.547544 38.912071 12.503606 -38.680466 -40.919186 -55.152267 46.941250 -4.219174 55.406181 21.539494 -38.925323 -12.518315 
-0.393502 12.773220 14.471670 45.098362 0.000000 -180.000000 36.114361 -2.214713 -0.812097 34.998257 0.149597 0.849855 10.208276 0.000000 0.000000 6.941501 0.000000 0.000000 -20.848593 7.894837 11.590263 -58.590263 -31.304174 7.579580 1.297960 -6.723930 0.953853 -4.852766 -16.261768 -7.233298 21.270454 -6.868158 12.171221 57.481560 30.855879 7.026596 -1.508247 6.305356 0.960513 4.583620 16.807346 -8.367274 -37.217068 41.430161 55.590572 47.761013 4.456289 -55.318134 20.797716 38.485481 13.162921 -37.224087 -41.444996 -55.597889 47.763283 -4.472239 55.317852 20.790146 -38.497875 -13.176796 
-0.393502 12.773220 14.290112 46.548340 0.000000 -180.000000 35.725281 -2.214681 -0.812053 34.664864 0.149497 0.849845 9.370688 0.000000 0.000000 6.358232 0.000000 0.000000 -20.631489 7.315022 12.176455 -58.590260 -31.304171 7.579580 1.297960 -6.723930 0.953853 -5.975004 -15.315500 -6.455749 21.007792 -6.381414 12.703766 57.481567 30.855883 7.026598 -1.508247 6.305356 0.960513 5.745555 15.822074 -7.475570 -35.743752 41.948441 56.057827 48.584248 4.709478 -55.226688 20.058458 38.052139 13.811306 -35.749607 -41.962341 -56.065220 48.586185 -4.724068 55.225849 20.051386 -38.063717 -13.824332 
-0.393502 12.773220 14.108553 47.998772 0.000000 -180.000000 35.336197 -2.214649 -0.812010 34.331463 0.149397 0.849836 8.530672 0.000000 0.000000 5.774162 0.000000 0.000000 -20.408659 6.737371 12.764188 -58.590263 -31.304171 7.579581 1.297960 -6.723931 0.953853 -7.079331 -14.354536 -5.700634 20.740810 -5.897076 13.238118 57.481567 30.855883 7.026595 -1.508247 6.305356 0.960513 6.886421 14.819419 -6.608612 -34.252338 42.457664 56.546936 49.408276 4.961359 -55.131535 19.329746 37.612289 14.448812 -34.257034 -42.470604 -56.554375 49.409885 -4.974582 55.130169 19.323183 -37.623051 -14.460972 
-0.393502 12.773220 13.926994 49.449192 0.000000 -180.000000 34.947105 -2.214616 -0.811966 33.998066 0.149297 0.849828 7.688306 0.000000 0.000000 5.189322 0.000000 0.000000 -20.180143 6.162025 13.353513 -58.590260 -31.304171 7.579580 1.297960 -6.723930 0.953853 -8.165953 -13.379795 -4.967840 20.469528 -5.415239 13.774287 57.481560 30.855879 7.026596 -1.508247 6.305356 0.960513 8.006415 13.800460 -5.766270 -32.742878 42.957237 57.057987 50.233059 5.211850 -55.032734 18.611506 37.166107 15.075493 -32.746426 -42.969208 -57.065453 50.234329 -5.223697 55.030849 18.605463 -37.176064 -15.086770 
-0.393502 12.773220 13.745436 50.899136 0.000000 -180.000000 34.558025 -2.214583 -0.811923 33.664669 0.149197 0.849820 6.843677 0.000000 0.000000 4.603736 0.000000 0.000000 -19.945951 5.589114 13.944459 -58.590260 -31.304171 7.579580 1.297960 -6.723930 0.953853 -9.235104 -12.392186 -4.257208 20.193964 -4.936000 14.312281 57.481560 30.855875 7.026596 -1.508247 6.305356 0.960513 9.105781 12.766286 -4.948375 -31.215450 43.446533 57.590981 51.058506 5.460868 -54.930290 17.903685 36.713818 15.691410 -31.217888 -43.457542 -57.598454 51.059437 -5.471334 54.927902 17.898169 -36.722984 -15.701801 
-0.393502 12.773220 13.563877 52.348129 0.000000 -180.000000 34.168968 -2.214550 -0.811880 33.331291 0.149097 0.849812 5.996862 0.000000 0.000000 4.017437 0.000000 0.000000 -19.706110 5.018770 14.537064 -58.590260 -31.304171 7.579580 1.297960 -6.723930 0.953853 -10.287056 -11.392621 -3.568560 19.914133 -4.459452 14.852106 57.481560 30.855879 7.026597 -1.508247 6.305356 0.960513 10.184808 11.717977 -4.154716 -29.670225 43.924984 58.145901 51.884571 5.708339 -54.824230 17.206198 36.255596 16.296644 -29.671576 -43.935040 -58.153378 51.885162 -5.717414 54.821369 17.201212 -36.263985 -16.306133 
-0.393502 12.773220 13.382318 53.795738 0.000000 -180.000000 33.779938 -2.214516 -0.811837 32.997929 0.148997 0.849806 5.147947 0.000000 0.000000 3.430450 0.000000 0.000000 -19.460663 4.451131 15.131374 -58.590260 -31.304171 7.579580 1.297960 -6.723930 0.953853 -11.322102 -10.382008 -2.901689 19.630074 -3.985693 15.393776 57.481560 30.855879 7.026596 -1.508247 6.305356 0.960513 11.243819 10.656611 -3.385046 -28.107418 44.392021 58.722691 52.711170 5.954174 -54.714588 16.518959 35.791645 16.891268 -28.107702 -44.401093 -58.730106 52.711433 -5.961859 54.711273 16.514521 -35.799278 -16.899855 
-0.393502 12.773220 13.200760 55.241470 0.000000 -180.000000 33.390926 -2.214481 -0.811794 32.664574 0.148897 0.849799 4.297020 0.000000 0.000000 2.842809 0.000000 0.000000 -19.209606 3.886322 15.727401 -58.590260 -31.304171 7.579580 1.297960 -6.723930 0.953853 -12.340562 -9.361238 -2.256364 19.341805 -3.514816 15.937296 57.481560 30.855879 7.026596 -1.508247 6.305356 0.960513 12.283171 9.583251 -2.639088 -26.527273 44.847054 59.321182 53.538246 6.198301 -54.601379 15.841878 35.322159 17.475378 -26.526516 -44.855129 -59.328499 53.538170 -6.204590 54.597649 15.837979 -35.329044 -17.483055 
